<svg xmlns="http://www.w3.org/2000/svg" width="800" height="200" viewBox="0 0 800 200">
  <!-- Gradeum Dual-Pillar Lockup — Amber on Transparent -->
  <!-- Left pillar -->
  <rect x="40" y="20" width="50" height="7" rx="1" fill="#F5A623"/>
  <rect x="44" y="27" width="42" height="5" rx="1" fill="#F5A623" opacity="0.7"/>
  <path d="M52 32 L50 160 L80 160 L78 32" fill="#F5A623" opacity="0.75"/>
  <rect x="44" y="160" width="42" height="5" rx="1" fill="#F5A623" opacity="0.7"/>
  <rect x="40" y="165" width="50" height="8" rx="1" fill="#F5A623"/>
  <!-- Right pillar -->
  <rect x="710" y="20" width="50" height="7" rx="1" fill="#F5A623"/>
  <rect x="714" y="27" width="42" height="5" rx="1" fill="#F5A623" opacity="0.7"/>
  <path d="M722 32 L720 160 L750 160 L748 32" fill="#F5A623" opacity="0.75"/>
  <rect x="714" y="160" width="42" height="5" rx="1" fill="#F5A623" opacity="0.7"/>
  <rect x="710" y="165" width="50" height="8" rx="1" fill="#F5A623"/>
  <!-- Wordmark -->
  <text x="400" y="105" text-anchor="middle" font-family="Garamond, Georgia, serif" font-size="72" letter-spacing="12" fill="#F5A623">GRADEUM</text>
  <!-- Tagline -->
  <text x="400" y="145" text-anchor="middle" font-family="Garamond, Georgia, serif" font-size="22" font-style="italic" letter-spacing="4" fill="#C4D0DC">Gradus ad futurum</text>
</svg>