<svg xmlns="http://www.w3.org/2000/svg" viewBox="0 0 800 500" font-family="system-ui, -apple-system, sans-serif">
  <!-- Window frame -->
  <rect width="800" height="500" rx="12" fill="#0F1D36"/>
  <rect x="0" y="0" width="800" height="36" rx="12" fill="#1B3A5C"/>
  <rect x="0" y="12" width="800" height="24" fill="#1B3A5C"/>
  <circle cx="20" cy="18" r="5" fill="#EF4444" opacity="0.7"/>
  <circle cx="36" cy="18" r="5" fill="#F59E0B" opacity="0.7"/>
  <circle cx="52" cy="18" r="5" fill="#22C55E" opacity="0.7"/>
  <text x="400" y="22" fill="#9BA3B0" font-size="11" text-anchor="middle" font-weight="600">Document Production</text>

  <!-- Template panel (left 50%) -->
  <rect x="16" y="48" width="376" height="436" rx="8" fill="#1B3A5C"/>

  <!-- Document title -->
  <text x="32" y="72" fill="#FAF7F2" font-size="12" font-weight="700">Basis of Design</text>
  <text x="32" y="88" fill="#E8E4DD" font-size="10">Berth 7 Rehabilitation</text>

  <!-- Status badge -->
  <rect x="32" y="98" width="76" height="18" rx="9" fill="#C4883A" opacity="0.2"/>
  <text x="70" y="111" fill="#C4883A" font-size="8" text-anchor="middle" font-weight="600">DRAFT v0.2</text>

  <rect x="32" y="126" width="344" height="1" fill="#2A3F66"/>

  <!-- Section list -->
  <text x="32" y="146" fill="#9BA3B0" font-size="8" font-weight="700" letter-spacing="1">SECTIONS</text>

  <!-- Section 1 - complete -->
  <rect x="32" y="158" width="344" height="32" rx="4" fill="#0F1D36"/>
  <rect x="44" y="168" width="12" height="12" rx="6" fill="#2D6A4F"/>
  <text x="50" y="178" fill="#FAF7F2" font-size="8" text-anchor="middle">&#10003;</text>
  <text x="66" y="178" fill="#E8E4DD" font-size="10">1. Project Description</text>
  <text x="364" y="178" fill="#9BA3B0" font-size="8" text-anchor="end">Complete</text>

  <!-- Section 2 - complete -->
  <rect x="32" y="196" width="344" height="32" rx="4" fill="#0F1D36"/>
  <rect x="44" y="206" width="12" height="12" rx="6" fill="#2D6A4F"/>
  <text x="50" y="216" fill="#FAF7F2" font-size="8" text-anchor="middle">&#10003;</text>
  <text x="66" y="216" fill="#E8E4DD" font-size="10">2. Governing Codes &amp; Standards</text>
  <text x="364" y="216" fill="#9BA3B0" font-size="8" text-anchor="end">Complete</text>

  <!-- Section 3 - in progress (highlighted) -->
  <rect x="32" y="234" width="344" height="32" rx="4" fill="#C4883A" opacity="0.1" stroke="#C4883A" stroke-width="1"/>
  <text x="50" y="254" fill="#C4883A" font-size="12" text-anchor="middle">&#8594;</text>
  <text x="66" y="254" fill="#FAF7F2" font-size="10" font-weight="600">3. Design Criteria</text>
  <text x="364" y="254" fill="#C4883A" font-size="8" text-anchor="end">In Progress</text>

  <!-- Section 4 - pending -->
  <rect x="32" y="272" width="344" height="32" rx="4" fill="#0F1D36"/>
  <circle cx="50" cy="292" r="6" fill="none" stroke="#9BA3B0" stroke-width="1"/>
  <text x="66" y="292" fill="#9BA3B0" font-size="10">4. Environmental Conditions</text>

  <!-- Section 5 - pending -->
  <rect x="32" y="310" width="344" height="32" rx="4" fill="#0F1D36"/>
  <circle cx="50" cy="330" r="6" fill="none" stroke="#9BA3B0" stroke-width="1"/>
  <text x="66" y="330" fill="#9BA3B0" font-size="10">5. Load Cases</text>

  <!-- Section 6 - pending -->
  <rect x="32" y="348" width="344" height="32" rx="4" fill="#0F1D36"/>
  <circle cx="50" cy="368" r="6" fill="none" stroke="#9BA3B0" stroke-width="1"/>
  <text x="66" y="368" fill="#9BA3B0" font-size="10">6. Open Items</text>

  <!-- Progress bar -->
  <rect x="32" y="400" width="344" height="6" rx="3" fill="#2A3F66"/>
  <rect x="32" y="400" width="115" height="6" rx="3" fill="#C4883A"/>
  <text x="32" y="420" fill="#9BA3B0" font-size="8">33% complete  |  2 of 6 sections</text>

  <!-- Editing panel (right 50%) -->
  <rect x="404" y="48" width="380" height="436" rx="8" fill="#1B3A5C"/>

  <!-- Active section header -->
  <rect x="420" y="56" width="348" height="32" rx="4" fill="#2A3F66"/>
  <text x="436" y="76" fill="#FAF7F2" font-size="12" font-weight="700">3. Design Criteria</text>

  <!-- AI-generated content -->
  <rect x="420" y="100" width="348" height="28" rx="4" fill="#0F1D36"/>
  <rect x="428" y="106" width="8" height="14" rx="2" fill="#C4883A" opacity="0.5"/>
  <text x="444" y="118" fill="#FAF7F2" font-size="10">Design wind speed: 150 mph</text>
  <text x="444" y="118" fill="#FAF7F2" font-size="10" opacity="0">.</text>
  <text x="700" y="118" fill="#3B82F6" font-size="8" text-anchor="end">ASCE 7-22</text>

  <rect x="420" y="136" width="348" height="28" rx="4" fill="#0F1D36"/>
  <rect x="428" y="142" width="8" height="14" rx="2" fill="#C4883A" opacity="0.5"/>
  <text x="444" y="154" fill="#FAF7F2" font-size="10">Vessel berthing energy: 45 kip-ft</text>
  <text x="700" y="154" fill="#3B82F6" font-size="8" text-anchor="end">ASCE 61-19</text>

  <rect x="420" y="172" width="348" height="28" rx="4" fill="#0F1D36"/>
  <rect x="428" y="178" width="8" height="14" rx="2" fill="#C4883A" opacity="0.5"/>
  <text x="444" y="190" fill="#FAF7F2" font-size="10">Seismic Site Class: D</text>
  <text x="700" y="190" fill="#3B82F6" font-size="8" text-anchor="end">ASCE 7-22</text>

  <rect x="420" y="208" width="348" height="28" rx="4" fill="#0F1D36"/>
  <rect x="428" y="214" width="8" height="14" rx="2" fill="#C4883A" opacity="0.5"/>
  <text x="444" y="226" fill="#FAF7F2" font-size="10">Corrosion zone: Splash/tidal (MIL C-5)</text>
  <text x="700" y="226" fill="#3B82F6" font-size="8" text-anchor="end">UFC 4-150</text>

  <rect x="420" y="244" width="348" height="28" rx="4" fill="#0F1D36"/>
  <rect x="428" y="250" width="8" height="14" rx="2" fill="#C4883A" opacity="0.5"/>
  <text x="444" y="262" fill="#FAF7F2" font-size="10">Design life: 50 years (PIANC WG 162)</text>
  <text x="700" y="262" fill="#3B82F6" font-size="8" text-anchor="end">PIANC 162</text>

  <!-- Action buttons -->
  <rect x="420" y="296" width="128" height="32" rx="6" fill="#2A3F66"/>
  <text x="484" y="316" fill="#E8E4DD" font-size="10" text-anchor="middle">+ Add criteria</text>

  <rect x="560" y="296" width="140" height="32" rx="6" fill="#C4883A" opacity="0.15" stroke="#C4883A" stroke-width="1"/>
  <text x="630" y="316" fill="#C4883A" font-size="10" text-anchor="middle">Flag for PE review</text>

  <!-- AI generation note -->
  <rect x="420" y="420" width="348" height="48" rx="6" fill="#0F1D36"/>
  <text x="436" y="440" fill="#9BA3B0" font-size="8">AI-drafted from project standards and governing codes.</text>
  <text x="436" y="454" fill="#9BA3B0" font-size="8" font-style="italic">All content requires PE review before incorporation.</text>
</svg>
