<svg xmlns="http://www.w3.org/2000/svg" viewBox="0 0 800 500" font-family="system-ui, -apple-system, sans-serif">
  <!-- Window frame -->
  <rect width="800" height="500" rx="12" fill="#0F1D36"/>
  <rect x="0" y="0" width="800" height="36" rx="12" fill="#1B3A5C"/>
  <rect x="0" y="12" width="800" height="24" fill="#1B3A5C"/>
  <circle cx="20" cy="18" r="5" fill="#EF4444" opacity="0.7"/>
  <circle cx="36" cy="18" r="5" fill="#F59E0B" opacity="0.7"/>
  <circle cx="52" cy="18" r="5" fill="#22C55E" opacity="0.7"/>
  <text x="400" y="22" fill="#9BA3B0" font-size="11" text-anchor="middle" font-weight="600">Drawing Intelligence</text>

  <!-- Drawing viewer area -->
  <rect x="16" y="48" width="536" height="436" rx="8" fill="#1B3A5C"/>

  <!-- Drawing title block -->
  <rect x="28" y="56" width="512" height="24" rx="4" fill="#2A3F66"/>
  <text x="40" y="72" fill="#9BA3B0" font-size="9" font-weight="600">S-201 -- PILE LAYOUT PLAN  |  SHEET 3 OF 12</text>
  <text x="524" y="72" fill="#9BA3B0" font-size="8" text-anchor="end">REV B  02/15/2024</text>

  <!-- Grid lines -->
  <line x1="80" y1="100" x2="80" y2="440" stroke="#2A3F66" stroke-width="0.5"/>
  <line x1="180" y1="100" x2="180" y2="440" stroke="#2A3F66" stroke-width="0.5"/>
  <line x1="280" y1="100" x2="280" y2="440" stroke="#2A3F66" stroke-width="0.5"/>
  <line x1="380" y1="100" x2="380" y2="440" stroke="#2A3F66" stroke-width="0.5"/>
  <line x1="480" y1="100" x2="480" y2="440" stroke="#2A3F66" stroke-width="0.5"/>

  <line x1="40" y1="140" x2="530" y2="140" stroke="#2A3F66" stroke-width="0.5"/>
  <line x1="40" y1="220" x2="530" y2="220" stroke="#2A3F66" stroke-width="0.5"/>
  <line x1="40" y1="300" x2="530" y2="300" stroke="#2A3F66" stroke-width="0.5"/>
  <line x1="40" y1="380" x2="530" y2="380" stroke="#2A3F66" stroke-width="0.5"/>

  <!-- Grid labels -->
  <text x="80" y="96" fill="#9BA3B0" font-size="9" text-anchor="middle">A</text>
  <text x="180" y="96" fill="#9BA3B0" font-size="9" text-anchor="middle">B</text>
  <text x="280" y="96" fill="#9BA3B0" font-size="9" text-anchor="middle">C</text>
  <text x="380" y="96" fill="#9BA3B0" font-size="9" text-anchor="middle">D</text>
  <text x="480" y="96" fill="#9BA3B0" font-size="9" text-anchor="middle">E</text>

  <text x="36" y="144" fill="#9BA3B0" font-size="9" text-anchor="end">1</text>
  <text x="36" y="224" fill="#9BA3B0" font-size="9" text-anchor="end">2</text>
  <text x="36" y="304" fill="#9BA3B0" font-size="9" text-anchor="end">3</text>
  <text x="36" y="384" fill="#9BA3B0" font-size="9" text-anchor="end">4</text>

  <!-- Piles (small squares) -->
  <g fill="#9BA3B0" opacity="0.5">
    <rect x="74" y="134" width="12" height="12" rx="2"/>
    <rect x="174" y="134" width="12" height="12" rx="2"/>
    <rect x="274" y="134" width="12" height="12" rx="2"/>
    <rect x="374" y="134" width="12" height="12" rx="2"/>
    <rect x="474" y="134" width="12" height="12" rx="2"/>

    <rect x="74" y="214" width="12" height="12" rx="2"/>
    <rect x="174" y="214" width="12" height="12" rx="2"/>
    <rect x="274" y="214" width="12" height="12" rx="2"/>
    <rect x="374" y="214" width="12" height="12" rx="2"/>
    <rect x="474" y="214" width="12" height="12" rx="2"/>

    <rect x="74" y="294" width="12" height="12" rx="2"/>
    <rect x="174" y="294" width="12" height="12" rx="2"/>
    <rect x="374" y="294" width="12" height="12" rx="2"/>
    <rect x="474" y="294" width="12" height="12" rx="2"/>

    <rect x="74" y="374" width="12" height="12" rx="2"/>
    <rect x="174" y="374" width="12" height="12" rx="2"/>
    <rect x="274" y="374" width="12" height="12" rx="2"/>
    <rect x="374" y="374" width="12" height="12" rx="2"/>
    <rect x="474" y="374" width="12" height="12" rx="2"/>
  </g>

  <!-- Highlighted pile at C-4 -->
  <rect x="270" y="290" width="20" height="20" rx="3" fill="#C4883A" opacity="0.3" stroke="#C4883A" stroke-width="2"/>
  <rect x="274" y="294" width="12" height="12" rx="2" fill="#C4883A"/>

  <!-- Dimension line -->
  <line x1="180" y1="424" x2="280" y2="424" stroke="#9BA3B0" stroke-width="0.5"/>
  <line x1="180" y1="420" x2="180" y2="428" stroke="#9BA3B0" stroke-width="0.5"/>
  <line x1="280" y1="420" x2="280" y2="428" stroke="#9BA3B0" stroke-width="0.5"/>
  <text x="230" y="420" fill="#9BA3B0" font-size="8" text-anchor="middle">25'-0"</text>

  <!-- Element details panel (right) -->
  <rect x="564" y="48" width="220" height="436" rx="8" fill="#1B3A5C"/>
  <text x="580" y="72" fill="#FAF7F2" font-size="12" font-weight="700">Element Details</text>
  <rect x="580" y="80" width="188" height="1" fill="#2A3F66"/>

  <!-- Fields -->
  <text x="580" y="104" fill="#9BA3B0" font-size="9">Drawing</text>
  <text x="580" y="118" fill="#FAF7F2" font-size="11" font-weight="600">S-201 -- Pile Layout Plan</text>

  <text x="580" y="144" fill="#9BA3B0" font-size="9">Sheet</text>
  <text x="580" y="158" fill="#FAF7F2" font-size="11">3 of 12</text>

  <text x="580" y="184" fill="#9BA3B0" font-size="9">Zone</text>
  <text x="580" y="198" fill="#FAF7F2" font-size="11">Plan View -- Grid C-4</text>

  <text x="580" y="224" fill="#9BA3B0" font-size="9">Element</text>
  <text x="580" y="238" fill="#FAF7F2" font-size="11" font-weight="600">HP 14x117 Steel H-Pile</text>

  <rect x="580" y="254" width="188" height="1" fill="#2A3F66"/>

  <text x="580" y="278" fill="#9BA3B0" font-size="9">Sealed by</text>
  <text x="580" y="292" fill="#FAF7F2" font-size="11">J. Wiginton, P.E.</text>

  <text x="580" y="318" fill="#9BA3B0" font-size="9">Seal date</text>
  <text x="580" y="332" fill="#FAF7F2" font-size="11">02/15/2024</text>

  <text x="580" y="358" fill="#9BA3B0" font-size="9">Status</text>
  <rect x="580" y="364" width="62" height="20" rx="10" fill="#2D6A4F"/>
  <text x="611" y="378" fill="#FAF7F2" font-size="9" text-anchor="middle" font-weight="700">SEALED</text>
</svg>
